<svg xmlns="http://www.w3.org/2000/svg" viewBox="0 0 800 600">
  <g fill="none" stroke="#888" stroke-width="2.5" stroke-linecap="round" stroke-linejoin="round">
    <!-- Body -->
    <path d="M300 350 Q350 280 420 300 Q500 320 520 360 Q540 400 500 420 Q460 440 400 430 Q340 420 300 390 Z" fill="#888" fill-opacity="0.05"/>
    <!-- Neck -->
    <path d="M300 350 Q260 300 220 260 Q200 240 180 230" fill="#888" fill-opacity="0.04"/>
    <path d="M300 390 Q270 340 240 290 Q220 260 200 250"/>
    <!-- Head -->
    <path d="M180 230 Q150 210 110 220 Q80 230 70 250 Q65 270 80 280 Q100 290 130 280 Q160 270 200 250" fill="#888" fill-opacity="0.06"/>
    <!-- Snout -->
    <path d="M70 250 Q50 240 40 250 Q35 260 50 265"/>
    <!-- Eye -->
    <circle cx="120" cy="245" r="6" fill="#888" fill-opacity="0.08"/>
    <!-- Horn -->
    <path d="M140 220 Q150 190 165 175"/>
    <path d="M160 225 Q175 200 185 185"/>
    <!-- Jaw -->
    <path d="M80 280 Q60 290 50 280"/>
    <!-- Wing (large) -->
    <path d="M350 310 Q320 200 280 140 Q300 160 340 130 Q360 170 380 120 Q390 170 420 140 Q410 200 440 180 Q420 250 420 300" fill="#888" fill-opacity="0.04"/>
    <!-- Wing membrane lines -->
    <path d="M350 310 Q330 230 340 130"/>
    <path d="M370 305 Q360 210 380 120"/>
    <path d="M400 300 Q400 220 420 140"/>
    <!-- Tail -->
    <path d="M500 420 Q560 450 620 440 Q680 420 720 380 Q740 360 750 330 Q755 310 740 300"/>
    <!-- Tail spade -->
    <path d="M740 300 Q760 290 755 270 Q750 290 730 310 Q750 310 740 300" fill="#888" fill-opacity="0.05"/>
    <!-- Back legs -->
    <path d="M460 430 Q470 480 450 520 Q445 530 455 535"/>
    <path d="M420 435 Q425 480 410 520 Q405 530 415 535"/>
    <!-- Front legs -->
    <path d="M310 390 Q300 430 290 470 Q285 480 295 485"/>
    <path d="M330 400 Q325 440 320 470 Q315 480 325 485"/>
    <!-- Belly spikes -->
    <path d="M320 410 L315 425 L340 415"/>
    <path d="M360 425 L355 440 L380 430"/>
    <!-- Back spikes -->
    <path d="M340 295 L335 275 L360 290"/>
    <path d="M380 295 L380 275 L400 295"/>
    <path d="M420 305 L425 285 L440 310"/>
  </g>
</svg>