<svg xmlns="http://www.w3.org/2000/svg" viewBox="0 0 800 600">
  <g fill="none" stroke="#888" stroke-width="2.5" stroke-linecap="round" stroke-linejoin="round">
    <!-- Body -->
    <ellipse cx="420" cy="300" rx="120" ry="70" fill="#888" fill-opacity="0.05"/>
    <!-- Neck (S-curve) -->
    <path d="M340 270 Q300 240 310 180 Q320 120 350 90 Q380 60 400 80"/>
    <path d="M360 280 Q320 250 330 185 Q340 130 365 100 Q385 75 400 80"/>
    <!-- Head -->
    <ellipse cx="400" cy="78" rx="30" ry="18" fill="#888" fill-opacity="0.06"/>
    <!-- Beak -->
    <path d="M430 78 Q450 75 460 82 Q455 88 430 85" fill="#888" fill-opacity="0.04"/>
    <!-- Beak line -->
    <line x1="430" y1="82" x2="460" y2="82"/>
    <!-- Eye -->
    <circle cx="415" cy="74" r="4" fill="#888" fill-opacity="0.08"/>
    <!-- Tail feathers -->
    <path d="M530 280 Q570 260 580 270"/>
    <path d="M535 290 Q575 275 585 285"/>
    <path d="M530 300 Q570 295 580 300"/>
    <!-- Standing leg -->
    <path d="M400 370 L390 460 L385 520 Q380 540 370 545"/>
    <!-- Knee joint -->
    <circle cx="390" cy="460" r="4" fill="#888" fill-opacity="0.06"/>
    <!-- Foot -->
    <path d="M370 545 Q355 550 345 545"/>
    <path d="M370 545 Q365 555 355 555"/>
    <path d="M370 545 Q375 555 380 550"/>
    <!-- Tucked leg -->
    <path d="M430 360 Q440 390 430 410 Q420 420 410 410"/>
    <!-- Wing detail -->
    <path d="M350 310 Q420 330 500 300" fill="#888" fill-opacity="0.03"/>
    <path d="M360 320 Q420 340 490 315"/>
    <!-- Feather details on body -->
    <path d="M380 280 Q400 275 420 280"/>
    <path d="M370 295 Q400 290 430 295"/>
  </g>
</svg>