<svg xmlns="http://www.w3.org/2000/svg" viewBox="0 0 800 600" fill="none" stroke="#888" stroke-width="2.5" stroke-linecap="round" stroke-linejoin="round">
  <ellipse cx="400" cy="350" rx="160" ry="120" fill="#888" fill-opacity="0.05"/>
  <circle cx="340" cy="200" r="45" fill="#888" fill-opacity="0.06"/>
  <circle cx="460" cy="200" r="45" fill="#888" fill-opacity="0.06"/>
  <circle cx="345" cy="195" r="15" fill="#888" fill-opacity="0.08"/>
  <circle cx="465" cy="195" r="15" fill="#888" fill-opacity="0.08"/>
  <circle cx="348" cy="192" r="6" fill="white" stroke="none"/>
  <circle cx="468" cy="192" r="6" fill="white" stroke="none"/>
  <path d="M370 300 Q400 320 430 300" fill="none" stroke-width="2.5"/>
  <path d="M280 380 Q250 420 260 470 Q270 490 300 480 L330 460" fill="#888" fill-opacity="0.04"/>
  <path d="M520 380 Q550 420 540 470 Q530 490 500 480 L470 460" fill="#888" fill-opacity="0.04"/>
  <path d="M320 450 L300 520 Q310 535 330 530 L360 520 Q370 530 385 525 L370 470" fill="#888" fill-opacity="0.04"/>
  <path d="M430 470 L415 525 Q430 530 440 520 L460 530 Q480 535 490 520 L470 450" fill="#888" fill-opacity="0.04"/>
  <g stroke-width="1" opacity="0.1">
    <circle cx="360" cy="340" r="15"/>
    <circle cx="400" cy="360" r="12"/>
    <circle cx="440" cy="340" r="15"/>
  </g>
</svg>
