<svg xmlns="http://www.w3.org/2000/svg" viewBox="0 0 800 600">
  <g stroke="#888" stroke-width="2.5" fill="#888" fill-opacity="0.05" stroke-linecap="round" stroke-linejoin="round">
    <!-- Balloon envelope -->
    <path d="M400 80 C280 80 180 160 180 270 C180 350 240 410 300 440 L310 450 L490 450 L500 440 C560 410 620 350 620 270 C620 160 520 80 400 80Z"/>
    <!-- Vertical panels -->
    <path d="M400 80 C380 180 370 300 360 450" fill="none"/>
    <path d="M400 80 C420 180 430 300 440 450" fill="none"/>
    <path d="M400 80 C340 140 300 250 310 450" fill="none"/>
    <path d="M400 80 C460 140 500 250 490 450" fill="none"/>
    <!-- Ropes -->
    <line x1="310" y1="450" x2="330" y2="500" fill="none"/>
    <line x1="490" y1="450" x2="470" y2="500" fill="none"/>
    <line x1="360" y1="450" x2="350" y2="500" fill="none"/>
    <line x1="440" y1="450" x2="450" y2="500" fill="none"/>
    <!-- Basket -->
    <rect x="330" y="500" width="140" height="70" rx="8" ry="8"/>
    <!-- Basket weave lines -->
    <line x1="330" y1="520" x2="470" y2="520" fill="none"/>
    <line x1="330" y1="540" x2="470" y2="540" fill="none"/>
    <line x1="330" y1="555" x2="470" y2="555" fill="none"/>
    <line x1="365" y1="500" x2="365" y2="570" fill="none"/>
    <line x1="400" y1="500" x2="400" y2="570" fill="none"/>
    <line x1="435" y1="500" x2="435" y2="570" fill="none"/>
    <!-- Clouds -->
    <ellipse cx="150" cy="200" rx="60" ry="25" fill-opacity="0.03"/>
    <ellipse cx="130" cy="190" rx="40" ry="20" fill-opacity="0.03"/>
    <ellipse cx="680" cy="300" rx="55" ry="22" fill-opacity="0.03"/>
    <ellipse cx="660" cy="290" rx="35" ry="18" fill-opacity="0.03"/>
  </g>
</svg>
