<svg xmlns="http://www.w3.org/2000/svg" viewBox="0 0 800 600" fill="none" stroke="#888" stroke-width="2.5" stroke-linecap="round" stroke-linejoin="round">
  <path d="M400 80 L200 520 Q300 550 400 560 Q500 550 600 520Z" fill="#888" fill-opacity="0.05"/>
  <path d="M400 80 L200 520" stroke-width="2.5"/>
  <path d="M400 80 L600 520" stroke-width="2.5"/>
  <path d="M200 520 Q300 550 400 560 Q500 550 600 520" fill="none" stroke-width="2.5"/>
  <path d="M210 510 Q300 538 400 548 Q500 538 590 510" stroke-width="3" opacity="0.3"/>
  <circle cx="350" cy="300" r="30" fill="#888" fill-opacity="0.06"/>
  <circle cx="430" cy="380" r="28" fill="#888" fill-opacity="0.06"/>
  <circle cx="370" cy="440" r="25" fill="#888" fill-opacity="0.06"/>
  <circle cx="460" cy="280" r="22" fill="#888" fill-opacity="0.06"/>
  <circle cx="320" cy="400" r="20" fill="#888" fill-opacity="0.06"/>
  <g fill="#888" fill-opacity="0.04" stroke-width="1.5">
    <ellipse cx="300" cy="350" rx="15" ry="8" transform="rotate(-20 300 350)"/>
    <ellipse cx="480" cy="450" rx="12" ry="7" transform="rotate(15 480 450)"/>
    <ellipse cx="420" cy="200" rx="10" ry="6" transform="rotate(-10 420 200)"/>
  </g>
</svg>
