<svg xmlns="http://www.w3.org/2000/svg" viewBox="0 0 800 600">
  <g fill="none" stroke="#888" stroke-width="2.5" stroke-linecap="round" stroke-linejoin="round">
    <!-- Star on top -->
    <polygon points="400,45 408,70 435,70 413,85 421,110 400,95 379,110 387,85 365,70 392,70" fill="#888" fill-opacity="0.06"/>
    <!-- Top tier -->
    <polygon points="400,100 340,200 460,200" fill="#888" fill-opacity="0.04"/>
    <!-- Middle tier -->
    <polygon points="400,170 310,300 490,300" fill="#888" fill-opacity="0.05"/>
    <!-- Bottom tier -->
    <polygon points="400,260 270,420 530,420" fill="#888" fill-opacity="0.06"/>
    <!-- Trunk -->
    <rect x="378" y="420" width="44" height="60" rx="3" fill="#888" fill-opacity="0.05"/>
    <!-- Pot -->
    <polygon points="350,480 360,540 440,540 450,480" fill="#888" fill-opacity="0.04"/>
    <line x1="348" y1="480" x2="452" y2="480"/>
    <!-- Ornaments -->
    <circle cx="370" cy="220" r="8" fill="#888" fill-opacity="0.07"/>
    <circle cx="430" cy="250" r="8" fill="#888" fill-opacity="0.07"/>
    <circle cx="350" cy="310" r="9" fill="#888" fill-opacity="0.07"/>
    <circle cx="450" cy="320" r="9" fill="#888" fill-opacity="0.07"/>
    <circle cx="400" cy="280" r="8" fill="#888" fill-opacity="0.07"/>
    <circle cx="310" cy="390" r="10" fill="#888" fill-opacity="0.07"/>
    <circle cx="400" cy="380" r="10" fill="#888" fill-opacity="0.07"/>
    <circle cx="480" cy="400" r="10" fill="#888" fill-opacity="0.07"/>
    <circle cx="370" cy="360" r="9" fill="#888" fill-opacity="0.07"/>
    <circle cx="440" cy="370" r="9" fill="#888" fill-opacity="0.07"/>
    <!-- Garland curves -->
    <path d="M355,190 Q400,210 445,190" fill="none"/>
    <path d="M325,280 Q400,310 475,280" fill="none"/>
    <path d="M290,385 Q400,420 510,385" fill="none"/>
  </g>
</svg>
